<svg xmlns="http://www.w3.org/2000/svg" xmlns:xlink="http://www.w3.org/1999/xlink" width="652" zoomAndPan="magnify" viewBox="0 0 488.87997 488.999988" height="652" preserveAspectRatio="xMidYMid meet" version="1.0"><defs><clipPath id="eeced8df3b"><path d="M 121 46 L 424.546875 46 L 424.546875 443 L 121 443 Z M 121 46 " clip-rule="nonzero"/></clipPath></defs><g clip-path="url(#eeced8df3b)"><path fill="#2196f3" d="M 526.328125 227.839844 L 662.15625 227.839844 L 662.15625 87.765625 L 709.789062 87.765625 L 709.789062 404.699219 L 662.15625 404.699219 L 662.15625 272.171875 L 526.328125 272.171875 L 526.328125 404.699219 L 477.75 404.699219 L 477.75 87.765625 L 526.328125 87.765625 Z M 798.925781 305.1875 C 798.925781 325.464844 804.113281 341.03125 814.960938 352.820312 C 825.335938 364.613281 840.429688 370.742188 858.351562 370.742188 C 876.273438 370.742188 891.363281 365.554688 901.738281 353.765625 C 912.117188 341.972656 917.773438 326.410156 917.773438 307.074219 C 917.773438 287.738281 912.585938 272.171875 901.738281 260.382812 C 891.363281 248.589844 876.273438 242.460938 858.351562 242.460938 C 840.429688 242.460938 826.75 248.589844 815.902344 260.382812 C 804.113281 271.230469 798.925781 286.320312 798.925781 305.1875 Z M 751.292969 304.242188 C 751.292969 275.472656 761.667969 251.421875 781.945312 231.140625 C 802.226562 210.863281 827.695312 200.484375 857.40625 200.484375 C 887.121094 200.484375 912.585938 210.863281 933.808594 231.140625 C 954.089844 251.421875 964.464844 276.890625 964.464844 306.601562 C 964.464844 336.3125 954.089844 361.78125 933.808594 382.0625 C 912.585938 402.339844 887.121094 411.773438 857.40625 411.773438 C 827.695312 411.773438 802.226562 401.398438 781.945312 381.117188 C 761.667969 360.367188 751.292969 334.898438 751.292969 304.242188 Z M 1051.246094 205.671875 L 1051.246094 320.277344 C 1051.246094 353.292969 1063.980469 370.269531 1090.390625 370.269531 C 1116.800781 370.269531 1129.535156 353.292969 1129.535156 320.277344 L 1129.535156 205.671875 L 1176.226562 205.671875 L 1176.226562 321.222656 C 1176.226562 337.257812 1174.339844 350.933594 1170.09375 362.726562 C 1165.851562 373.101562 1159.71875 383.003906 1149.816406 391.492188 C 1133.78125 405.171875 1114.914062 411.773438 1090.390625 411.773438 C 1065.867188 411.773438 1047 405.644531 1030.964844 391.492188 C 1021.53125 383.003906 1014.929688 373.570312 1010.683594 362.726562 C 1006.441406 353.292969 1005.496094 339.613281 1005.496094 321.222656 L 1005.496094 205.671875 Z M 1347.425781 239.628906 L 1309.222656 259.910156 C 1303.09375 247.175781 1295.546875 241.988281 1287.058594 241.988281 C 1282.8125 241.988281 1279.511719 242.933594 1276.683594 246.234375 C 1273.378906 249.535156 1272.4375 252.363281 1272.4375 256.609375 C 1272.4375 264.15625 1280.925781 271.230469 1298.847656 278.777344 C 1323.371094 289.152344 1340.351562 299.054688 1348.839844 307.542969 C 1357.328125 316.035156 1361.574219 328.769531 1361.574219 343.386719 C 1361.574219 362.253906 1354.027344 378.289062 1340.351562 391.964844 C 1326.675781 404.699219 1309.695312 409.886719 1290.359375 409.886719 C 1256.402344 409.886719 1233.292969 393.851562 1219.144531 361.308594 L 1258.289062 343.386719 C 1263.476562 352.820312 1267.722656 359.421875 1271.023438 361.308594 C 1276.210938 366.496094 1283.757812 368.855469 1291.300781 368.855469 C 1307.335938 368.855469 1314.410156 361.308594 1314.410156 347.632812 C 1314.410156 339.144531 1308.28125 331.597656 1296.488281 324.523438 C 1292.246094 322.636719 1287.058594 320.277344 1282.8125 318.390625 C 1278.566406 316.503906 1273.378906 314.148438 1269.136719 312.261719 C 1255.457031 306.128906 1246.027344 299.527344 1240.367188 291.980469 C 1232.820312 283.492188 1229.992188 273.117188 1229.992188 260.382812 C 1229.992188 243.402344 1236.121094 228.785156 1247.914062 216.992188 C 1259.703125 205.203125 1274.324219 200.015625 1292.246094 200.015625 C 1315.355469 200.484375 1334.691406 213.21875 1347.425781 239.628906 Z M 1545.507812 278.777344 C 1539.378906 254.25 1523.339844 241.515625 1498.816406 241.515625 C 1493.628906 241.515625 1488.441406 242.460938 1482.78125 243.402344 C 1477.59375 245.289062 1473.347656 247.648438 1469.105469 250.949219 C 1464.859375 254.25 1461.558594 258.496094 1458.730469 262.742188 C 1455.429688 266.984375 1453.542969 272.171875 1452.597656 278.777344 Z M 1592.199219 316.976562 L 1449.296875 316.976562 C 1450.238281 333.011719 1455.429688 346.691406 1465.332031 356.121094 C 1474.765625 365.554688 1486.554688 370.742188 1501.175781 370.742188 C 1512.964844 370.742188 1522.398438 367.441406 1529.945312 362.253906 C 1537.492188 357.066406 1545.980469 346.21875 1555.414062 331.597656 L 1594.558594 353.765625 C 1588.425781 364.140625 1581.824219 372.628906 1575.691406 380.175781 C 1569.5625 387.722656 1562.015625 393.851562 1554.46875 398.097656 C 1546.921875 402.339844 1538.433594 406.585938 1529.945312 408.472656 C 1521.457031 410.359375 1512.023438 411.773438 1501.175781 411.773438 C 1471.464844 411.773438 1446.9375 402.339844 1429.015625 383.003906 C 1411.09375 364.140625 1401.664062 338.671875 1401.664062 306.601562 C 1401.664062 275.003906 1410.152344 249.535156 1428.074219 230.199219 C 1445.996094 211.332031 1469.578125 201.429688 1497.875 201.429688 C 1527.585938 201.429688 1550.695312 210.863281 1567.675781 230.199219 C 1584.652344 249.0625 1593.140625 274.53125 1593.140625 307.542969 Z M 1880.832031 305.1875 C 1880.832031 324.050781 1886.023438 340.085938 1896.867188 351.878906 C 1907.246094 363.667969 1919.976562 369.800781 1936.957031 369.800781 C 1953.933594 369.800781 1967.613281 363.667969 1978.460938 351.878906 C 1988.835938 340.085938 1994.496094 324.523438 1994.496094 305.1875 C 1994.496094 285.851562 1989.308594 271.230469 1978.460938 258.496094 C 1968.085938 246.707031 1953.933594 240.574219 1936.957031 240.574219 C 1920.921875 240.574219 1908.1875 246.707031 1896.867188 258.496094 C 1886.023438 272.644531 1880.832031 287.265625 1880.832031 305.1875 Z M 1991.195312 205.671875 L 2037.882812 205.671875 L 2037.882812 405.171875 L 1991.195312 405.171875 L 1991.195312 383.949219 C 1972.328125 401.871094 1952.050781 410.359375 1929.882812 410.359375 C 1902.527344 410.359375 1878.945312 400.925781 1861.023438 380.648438 C 1843.101562 360.367188 1834.613281 334.898438 1834.613281 304.242188 C 1834.613281 274.53125 1843.101562 249.0625 1861.023438 228.785156 C 1878.945312 208.503906 1901.113281 199.070312 1927.996094 199.070312 C 1951.105469 199.070312 1972.328125 208.503906 1990.722656 227.839844 L 1990.722656 205.671875 C 1990.25 205.671875 1991.195312 205.671875 1991.195312 205.671875 Z M 2135.511719 87.765625 L 2135.511719 406.113281 L 2089.761719 406.113281 L 2089.761719 87.765625 Z M 2235.023438 87.765625 L 2235.023438 406.113281 L 2188.332031 406.113281 L 2188.332031 87.765625 Z M 2423.675781 232.085938 L 2441.597656 232.085938 C 2484.984375 232.085938 2507.152344 215.105469 2507.152344 181.148438 C 2507.152344 148.136719 2484.984375 132.570312 2439.238281 132.570312 L 2423.203125 132.570312 L 2423.203125 232.085938 Z M 2423.675781 276.890625 L 2423.675781 405.171875 L 2376.039062 405.171875 L 2376.039062 88.238281 L 2430.277344 88.238281 C 2456.6875 88.238281 2476.96875 90.125 2490.644531 93.425781 C 2504.320312 96.726562 2516.113281 103.804688 2526.488281 114.648438 C 2544.410156 132.570312 2553.84375 154.738281 2553.84375 181.621094 C 2553.84375 210.390625 2544.410156 233.5 2525.074219 250.476562 C 2506.207031 267.457031 2479.324219 275.945312 2446.785156 275.945312 Z M 2593.460938 205.671875 L 2640.148438 205.671875 L 2640.148438 223.59375 C 2648.640625 215.105469 2656.183594 208.976562 2662.316406 205.671875 C 2668.449219 202.371094 2676.9375 200.484375 2685.425781 200.484375 C 2697.214844 200.484375 2709.949219 204.730469 2723.628906 212.277344 L 2702.40625 254.722656 C 2693.914062 248.589844 2685.425781 245.289062 2676.9375 245.289062 C 2651.46875 245.289062 2638.734375 264.15625 2638.734375 302.355469 L 2638.734375 406.113281 L 2592.042969 406.113281 Z M 2785.410156 305.1875 C 2785.410156 325.464844 2790.597656 341.03125 2801.445312 352.820312 C 2811.820312 364.613281 2826.914062 370.742188 2844.835938 370.742188 C 2862.757812 370.742188 2877.847656 365.554688 2888.226562 353.765625 C 2898.601562 341.972656 2904.261719 326.410156 2904.261719 307.074219 C 2904.261719 287.738281 2899.070312 272.171875 2888.226562 260.382812 C 2877.847656 248.589844 2862.757812 242.460938 2844.835938 242.460938 C 2826.914062 242.460938 2813.234375 248.589844 2802.390625 260.382812 C 2790.597656 271.230469 2785.410156 286.320312 2785.410156 305.1875 Z M 2737.777344 304.242188 C 2737.777344 275.472656 2748.152344 251.421875 2768.433594 231.140625 C 2788.710938 210.863281 2814.179688 200.484375 2843.890625 200.484375 C 2873.605469 200.484375 2899.070312 210.863281 2920.296875 231.140625 C 2940.574219 251.421875 2950.949219 276.890625 2950.949219 306.601562 C 2950.949219 336.3125 2940.574219 361.78125 2920.296875 382.0625 C 2899.070312 402.339844 2873.605469 411.773438 2843.890625 411.773438 C 2814.179688 411.773438 2788.710938 401.398438 2768.433594 381.117188 C 2748.152344 360.367188 2737.777344 334.898438 2737.777344 304.242188 Z M 1740.761719 241.988281 L 1742.648438 241.988281 C 1744.535156 241.988281 1746.890625 241.988281 1748.777344 241.988281 C 1765.757812 242.933594 1782.734375 247.175781 1797.355469 255.664062 L 1797.355469 214.164062 C 1779.433594 204.730469 1761.511719 200.484375 1741.234375 200.484375 C 1710.578125 200.484375 1685.109375 210.863281 1663.886719 231.140625 C 1642.664062 251.421875 1632.289062 276.890625 1632.289062 306.601562 C 1632.289062 336.3125 1642.664062 361.78125 1662.941406 382.0625 C 1684.167969 402.339844 1709.632812 411.773438 1740.289062 411.773438 C 1759.15625 411.773438 1777.546875 406.585938 1796.414062 397.152344 L 1796.414062 355.648438 C 1780.378906 364.140625 1763.398438 368.382812 1747.835938 369.328125 C 1744.535156 369.328125 1741.703125 370.269531 1738.402344 370.269531 C 1721.425781 370.269531 1706.804688 364.140625 1695.957031 352.347656 C 1685.582031 340.558594 1678.976562 324.996094 1678.976562 305.660156 C 1678.976562 287.738281 1684.164062 271.703125 1695.957031 259.910156 C 1710.105469 248.121094 1723.78125 241.988281 1740.761719 241.988281 Z M 121.199219 118.894531 L 121.199219 375.457031 L 246.179688 442.429688 L 246.179688 46.265625 Z M 334.375 405.171875 L 282.496094 405.171875 L 282.496094 375.457031 L 304.664062 375.457031 L 305.605469 117.953125 L 282.496094 117.953125 L 282.496094 88.238281 L 335.316406 88.238281 Z M 334.375 405.171875 " fill-opacity="1" fill-rule="nonzero"/></g></svg>